<svg xmlns="http://www.w3.org/2000/svg" width="300" height="249" viewBox="0 0 300 249" version="1.1">
	<path d="M 123.099 22.402 C 121.735 23.157, 121.215 23.905, 121.896 24.132 C 123.719 24.740, 125.575 38.849, 124.135 41.155 C 123.134 42.758, 123.301 43, 125.410 43 C 129.390 43, 131.223 41.974, 129.961 40.453 C 129.361 39.731, 129.012 37.421, 129.185 35.320 C 129.436 32.272, 129.904 31.500, 131.500 31.500 C 133.246 31.500, 133.500 32.167, 133.500 36.752 C 133.500 42.290, 133.922 42.664, 138.714 41.379 C 140.658 40.858, 140.750 40.607, 139.464 39.321 C 138.659 38.516, 138 36.404, 138 34.629 C 138 32.853, 137.460 30.860, 136.800 30.200 C 135.253 28.653, 130.747 28.653, 129.200 30.200 C 128.267 31.133, 127.997 30.744, 127.986 28.450 C 127.970 24.870, 126.999 20.987, 126.133 21.035 C 125.785 21.055, 124.419 21.670, 123.099 22.402 M 173.509 23.029 C 174.472 26.063, 172.954 37.903, 171.404 39.453 C 170.267 40.590, 170.300 40.901, 171.607 41.403 C 172.463 41.731, 174.151 42, 175.358 42 C 177.317 42, 177.512 41.569, 177.170 37.981 C 176.774 33.834, 178.176 31, 180.622 31 C 182.259 31, 182.598 39.513, 181 40.500 C 179.036 41.714, 180.056 42.788, 183.561 43.197 C 185.519 43.426, 187.346 43.250, 187.620 42.806 C 187.894 42.363, 187.619 42, 187.010 42 C 186.312 42, 185.988 40.099, 186.135 36.872 C 186.403 31.007, 184.316 28.456, 180.114 29.509 C 177.811 30.086, 177.746 29.948, 178.241 25.553 C 178.747 21.064, 178.713 21, 175.810 21 C 173.306 21, 172.962 21.304, 173.509 23.029 M 112.688 23.646 C 111.272 25.061, 112.073 27, 114.073 27 C 115.471 27, 116.041 26.457, 115.823 25.333 C 115.466 23.492, 113.759 22.574, 112.688 23.646 M 195.480 25.032 C 195.092 25.660, 195.245 26.645, 195.820 27.220 C 197.164 28.564, 200.297 27.392, 199.750 25.749 C 199.194 24.078, 196.364 23.602, 195.480 25.032 M 91.585 29.699 C 89.173 30.971, 88.941 31.387, 90.236 32.112 C 92.074 33.141, 96.385 46.555, 95.564 48.693 C 95.111 49.874, 95.632 50.024, 98.251 49.462 C 102.443 48.564, 102.557 48.414, 100.566 46.423 C 98.347 44.204, 98.793 37.650, 101.195 37.196 C 102.429 36.962, 103.179 37.950, 103.954 40.830 C 104.540 43.006, 104.749 45.489, 104.420 46.349 C 103.911 47.675, 104.309 47.772, 107.046 46.987 C 111.245 45.782, 111.542 45.399, 109.701 43.558 C 108.855 42.712, 107.865 40.662, 107.500 39.002 C 106.582 34.819, 103.612 33.369, 100.346 35.509 C 97.392 37.444, 97.649 37.627, 95.887 32.331 L 94.500 28.162 91.585 29.699 M 157 30 C 152.715 34.285, 155.645 41.038, 161.865 41.215 C 164.782 41.298, 168.610 39.277, 167.548 38.215 C 167.273 37.940, 166.384 38.266, 165.572 38.940 C 163.338 40.794, 160.223 39.291, 159.503 36.013 C 158.284 30.466, 162.650 26.610, 165.057 31.107 C 166.358 33.537, 168.665 32.174, 167.664 29.567 C 166.753 27.192, 159.514 27.486, 157 30 M 113.750 32.386 C 110.853 33.439, 110.037 35, 112.383 35 C 114.820 35, 116.051 43.409, 113.750 44.338 C 111.755 45.143, 117.242 44.879, 120 44.038 C 122.082 43.403, 122.220 43.156, 120.825 42.559 C 119.837 42.137, 118.867 40.130, 118.462 37.672 C 117.488 31.760, 116.995 31.207, 113.750 32.386 M 192.711 35.884 C 193.122 38.946, 192.788 40.212, 191.131 41.869 L 189.030 43.970 191.765 44.568 C 193.269 44.898, 194.982 45.309, 195.571 45.483 C 196.180 45.663, 196.617 44.441, 196.585 42.650 C 196.554 40.917, 196.880 37.813, 197.310 35.750 C 198.072 32.088, 198.022 32, 195.140 32 C 192.291 32, 192.208 32.132, 192.711 35.884 M 81.997 33.750 C 81.995 34.163, 80.351 34.537, 78.342 34.581 C 70.922 34.747, 66.690 43.631, 70.510 51.020 C 72.416 54.706, 74.828 56, 79.788 56 C 82.678 56, 84.469 55.285, 86.604 53.278 C 88.197 51.781, 90.045 50.672, 90.710 50.813 C 91.629 51.008, 91.665 50.338, 90.862 48.033 C 89.342 43.672, 88.314 43.512, 87.563 47.516 C 86.166 54.963, 79.201 55.658, 75.001 48.770 C 69.855 40.329, 75.992 32.273, 83.231 37.967 C 86.407 40.465, 87.196 39.700, 85.320 35.940 C 83.977 33.247, 82.004 31.947, 81.997 33.750 M 143 34.500 C 143 35.583, 144.111 36, 147 36 C 149.889 36, 151 35.583, 151 34.500 C 151 33.417, 149.889 33, 147 33 C 144.111 33, 143 33.417, 143 34.500 M 203.458 36.868 C 204.133 38.995, 202.449 44.104, 200.721 45.172 C 199.999 45.619, 200.608 46.281, 202.349 46.943 C 206.184 48.401, 207.317 48.268, 206.617 46.444 C 205.145 42.609, 210.511 35.782, 212.486 38.977 C 213.387 40.435, 211.103 48, 209.761 48 C 207.852 48, 210.240 49.681, 213.106 50.354 C 215.428 50.899, 215.710 50.669, 215.699 48.233 C 215.693 46.730, 215.995 44.150, 216.371 42.500 C 217.263 38.582, 215.937 36.750, 212.108 36.612 C 210.401 36.550, 209.004 36.163, 209.002 35.750 C 209.001 35.337, 207.620 35, 205.933 35 C 203.393 35, 202.967 35.321, 203.458 36.868 M 223.011 43.487 C 222.329 44.308, 222.046 46.048, 222.379 47.373 C 222.842 49.217, 222.521 49.892, 220.990 50.292 C 217.739 51.142, 218.711 53.691, 223.239 56.188 C 230.277 60.071, 229.051 64.146, 221.950 60.474 C 220.133 59.535, 219 58.158, 219 56.891 C 219 54.537, 216.666 54.811, 216.199 57.219 C 215.797 59.288, 221.928 63, 225.746 63 C 231.828 63, 232.744 56.379, 226.991 53.996 C 222.115 51.977, 222.534 51.041, 228.209 51.278 C 233.042 51.481, 233.528 51.302, 233.825 49.206 C 234.074 47.452, 234.603 47.057, 236.075 47.524 C 237.178 47.874, 238 47.665, 238 47.036 C 238 46.432, 237.213 45.691, 236.250 45.390 C 235.287 45.089, 233.306 44.203, 231.846 43.422 C 228.408 41.581, 224.569 41.609, 223.011 43.487 M 226.667 44.667 C 225.431 45.902, 225.977 50, 227.378 50 C 229.353 50, 231.325 47.290, 230.643 45.513 C 230.046 43.955, 227.846 43.487, 226.667 44.667 M 181 74.500 L 181 79 169.500 79 C 162.500 79, 158 79.391, 158 80 C 158 80.609, 162.500 81, 169.500 81 L 181 81 181 84 L 181 87 171.500 87 C 165.833 87, 162 87.404, 162 88 C 162 88.596, 165.833 89, 171.500 89 L 181 89 181 92.500 L 181 96 166.941 96 C 157.823 96, 153.099 96.351, 153.500 97 C 154.297 98.289, 218 98.377, 218 97.089 C 218 96.065, 212.258 91, 211.098 91 C 210.686 91, 209.292 92.125, 208 93.500 C 205.883 95.754, 204.880 96, 197.826 96 L 190 96 190 92.500 L 190 89 200 89 C 205.500 89, 210 88.590, 210 88.089 C 210 87.588, 208.587 85.989, 206.860 84.536 L 203.720 81.894 201.055 84.447 C 199.064 86.355, 197.331 87, 194.195 87 C 190.201 87, 190 86.857, 190 84 L 190 81 201.941 81 C 208.509 81, 214.142 80.579, 214.460 80.065 C 215.013 79.169, 209.124 74, 207.550 74 C 207.131 74, 205.903 75.125, 204.821 76.500 C 203.088 78.703, 202.092 79, 196.427 79 L 190 79 190 76.059 C 190 74.441, 190.558 72.773, 191.240 72.352 C 192.737 71.426, 189.080 70.248, 184.250 70.100 C 181.050 70.002, 181 70.069, 181 74.500 M 44.290 75.820 C 34.980 89.761, 30.943 102.214, 30.293 119 C 29.601 136.898, 32.903 150.323, 41.596 164.950 C 46.293 172.855, 53.906 182.176, 55.074 181.454 C 55.636 181.107, 54.737 179.248, 53.005 177.170 C 37.656 158.769, 31.192 140.473, 32.295 118.552 C 33.048 103.574, 36.744 91.597, 44.262 79.773 C 49.152 72.080, 49.103 72.182, 48.224 71.639 C 47.780 71.364, 46.009 73.245, 44.290 75.820 M 133.500 74 L 130.626 77 107.063 77.215 C 94.103 77.333, 88.787 77.573, 95.250 77.747 C 104.402 77.993, 107 78.368, 107 79.439 C 107 81.268, 97.809 89.458, 92.074 92.739 C 89.558 94.178, 87.382 95.432, 87.237 95.524 C 86.975 95.692, 89.940 103.210, 90.508 103.819 C 90.671 103.995, 91.637 103.688, 92.653 103.137 C 94.142 102.330, 117.077 97.386, 129.169 95.265 C 131.414 94.871, 132.268 95.448, 134.551 98.898 C 137.301 103.053, 139.619 103.981, 141.800 101.800 C 144.615 98.985, 142.039 92.936, 136.372 89.053 C 132.937 86.699, 122.887 82.899, 122.065 83.643 C 121.826 83.860, 123.371 85.820, 125.500 88 C 127.629 90.180, 129.174 92.133, 128.935 92.340 C 128.431 92.775, 98.660 94.808, 98.180 94.439 C 97.908 94.230, 108.358 88.400, 115.742 84.641 C 118.771 83.100, 118.574 82.096, 115 80.850 C 108.914 78.729, 112.366 78, 128.500 78 C 137.575 78, 144.990 77.662, 144.979 77.250 C 144.959 76.553, 137.672 71, 136.777 71 C 136.556 71, 135.081 72.350, 133.500 74 M 252.644 71.767 C 252.340 72.259, 253.698 75.048, 255.662 77.964 C 263.802 90.051, 267.916 102.852, 268.705 118.552 C 269.817 140.642, 263.369 159.013, 248.263 176.798 C 245.788 179.712, 244.086 182.412, 244.481 182.798 C 246.307 184.583, 259.663 166.321, 264.501 155.425 C 273.838 134.396, 273.208 107.437, 262.896 86.628 C 258.464 77.687, 253.464 70.440, 252.644 71.767 M 166.604 111.320 C 165.914 123.533, 164.141 129.976, 160.307 134.213 C 158.912 135.755, 158.897 136, 160.195 136 C 163.043 136, 169.564 130.298, 172.028 125.653 L 174.497 121 186.312 121 L 198.127 121 197.813 124.250 C 197.506 127.439, 197.397 127.506, 192 127.822 L 186.500 128.144 189.749 129.524 C 191.536 130.282, 193.541 132.094, 194.204 133.549 C 195.266 135.880, 195.832 136.128, 198.955 135.628 C 205.114 134.643, 206 132.481, 206 118.448 C 206 111.307, 206.421 105.858, 207 105.500 C 208.649 104.481, 208.159 103.618, 204.531 101.147 L 201.077 98.795 198.403 100.897 C 194.757 103.765, 180.487 103.892, 172.618 101.126 L 167.286 99.252 166.604 111.320 M 109.800 106.750 L 109.500 112.500 98.500 113.034 L 87.500 113.568 98.500 114.034 L 109.500 114.500 109.500 122.500 L 109.500 130.500 95.750 130.778 C 87.707 130.941, 82 131.460, 82 132.028 C 82 133.299, 145.665 133.351, 146.450 132.080 C 147.071 131.076, 140.215 125, 138.460 125 C 137.864 125, 136.364 126.369, 135.127 128.043 C 132.939 131.002, 132.681 131.077, 125.689 130.793 L 118.500 130.500 118.500 122.500 L 118.500 114.500 130.359 114 L 142.218 113.500 138.168 110.250 C 135.940 108.463, 133.672 107, 133.127 107 C 132.582 107, 131.159 108.373, 129.964 110.051 C 128.002 112.805, 127.342 113.072, 123.146 112.801 L 118.500 112.500 118.192 108.241 C 117.966 105.111, 118.296 103.824, 119.436 103.386 C 122.310 102.283, 119.920 101, 114.991 101 L 110.100 101 109.800 106.750 M 175.698 104.635 C 175.314 105.019, 175 106.623, 175 108.199 L 175 111.066 186.250 110.783 L 197.500 110.500 197.500 107.500 L 197.500 104.500 186.948 104.218 C 181.145 104.063, 176.083 104.251, 175.698 104.635 M 174.787 116 L 174.346 119 186.173 119 L 198 119 198 116 L 198 113 186.613 113 L 175.227 113 174.787 116 M 91 149.368 C 91 149.644, 91.451 151.057, 92.003 152.508 L 93.006 155.145 87.532 154.892 C 83.371 154.699, 81.571 155.079, 80.029 156.474 C 76.466 159.698, 77.486 160.778, 84.179 160.872 C 90.827 160.966, 92.388 161.734, 91.835 164.644 C 91.548 166.153, 90.269 166.603, 84.991 167.050 L 78.500 167.600 85 168.050 L 91.500 168.500 91.500 171.955 C 91.500 174.816, 91.070 175.511, 89 176.001 C 86.902 176.497, 86.782 176.700, 88.250 177.265 C 89.213 177.635, 90 178.626, 90 179.469 C 90 181.575, 91.614 181.386, 94 179 C 95.407 177.593, 96 175.667, 96 172.500 L 96 168 102 168 C 107.997 168, 109.206 167.246, 106.633 165.110 C 105.593 164.247, 104.965 164.337, 104.010 165.488 C 103.320 166.319, 101.235 167, 99.378 167 C 96.291 167, 96 166.741, 96 164 C 96 161.221, 96.266 161, 99.606 161 C 101.949 161, 104.206 160.163, 106.054 158.608 C 108.800 156.298, 108.833 156.159, 107.047 154.543 C 105.833 153.444, 104.973 153.235, 104.540 153.935 C 103.522 155.582, 95.663 155.319, 96.300 153.659 C 96.583 152.922, 96.519 151.858, 96.157 151.294 C 95.452 150.195, 91 148.532, 91 149.368 M 128 149.435 C 128 149.674, 128.455 151.066, 129.011 152.528 L 130.021 155.186 124.261 154.843 C 118.211 154.483, 115 156.122, 115 159.570 C 115 162.140, 119.440 160.925, 119.820 158.250 C 120.126 156.090, 120.535 156, 130 156 C 139.282 156, 139.880 156.125, 140.180 158.122 L 140.500 160.243 142.968 158.236 C 145.115 156.489, 145.257 156.014, 144.060 154.572 C 143.106 153.423, 142.366 153.234, 141.642 153.958 C 141.069 154.531, 138.842 155, 136.693 155 C 133.663 155, 132.913 154.669, 133.351 153.527 C 133.678 152.676, 132.996 151.410, 131.736 150.527 C 129.604 149.034, 128 148.565, 128 149.435 M 193 153 C 193 156.463, 192.698 157.009, 190.750 157.063 L 188.500 157.127 190.716 158.018 C 192.827 158.868, 192.870 159.113, 191.626 163.205 C 190.908 165.567, 189.999 168.625, 189.607 170 L 188.894 172.500 190.947 170.139 L 193 167.778 193 174.463 C 193 180.289, 193.225 181.104, 194.750 180.813 C 196.210 180.535, 196.593 178.991, 197.061 171.490 C 197.370 166.545, 197.707 163.287, 197.811 164.250 C 197.915 165.213, 198.702 166, 199.559 166 C 200.438 166, 200.822 166.480, 200.438 167.100 C 199.950 167.890, 200.311 167.904, 201.724 167.148 C 204.217 165.814, 209.118 159.451, 208.290 158.623 C 206.595 156.928, 204.293 158.299, 203.040 161.750 C 202.206 164.047, 201.500 164.919, 201.219 164 C 200.966 163.175, 199.808 161.743, 198.645 160.818 C 197.481 159.894, 196.888 158.779, 197.325 158.341 C 197.763 157.904, 202.818 157.372, 208.560 157.160 C 218.898 156.777, 220.284 156.311, 217.633 154.110 C 216.593 153.247, 215.965 153.337, 215.010 154.488 C 213.321 156.522, 212 156.396, 212 154.200 C 212 152.105, 210.158 150, 208.325 150 C 207.436 150, 207.235 150.926, 207.661 153.057 L 208.273 156.114 202.636 155.886 L 197 155.658 197 152.329 C 197 149.667, 196.599 149, 195 149 C 193.333 149, 193 149.667, 193 153 M 158.250 150.706 C 156.317 151.078, 156 151.769, 156 155.611 C 156 158.701, 155.382 160.747, 154 162.230 C 152.900 163.411, 152 164.967, 152 165.689 C 152 167.784, 155.134 167.202, 155.710 165 C 156.191 163.162, 157.074 163, 166.617 163 C 175.113 163, 177 163.269, 177 164.479 C 177 165.693, 177.447 165.753, 179.500 164.818 C 180.875 164.192, 182 163.356, 182 162.962 C 182 161.698, 179.343 159.991, 178.570 160.759 C 178.159 161.166, 177.954 159.363, 178.113 156.751 C 178.460 151.048, 177.467 149.781, 173.484 150.846 C 170.709 151.588, 170.662 151.678, 172.757 152.226 C 175.409 152.920, 175.763 154.966, 173.250 155.079 C 172.205 155.126, 172.003 155.361, 172.750 155.662 C 173.438 155.940, 174 156.767, 174 157.500 C 174 158.233, 173.438 159.060, 172.750 159.338 C 171.750 159.741, 171.750 159.858, 172.750 159.921 C 173.438 159.964, 174 160.450, 174 161 C 174 161.571, 171 162, 167 162 C 160.130 162, 157.807 160.834, 162.250 159.617 C 164.075 159.117, 164.225 158.823, 163.048 158.066 C 162.249 157.552, 161.237 157.354, 160.798 157.625 C 160.359 157.896, 160 157.698, 160 157.184 C 160 156.147, 165.520 154.561, 168.250 154.814 C 169.509 154.931, 170 154.248, 170 152.381 C 170 150.426, 169.610 149.936, 168.418 150.393 C 167.548 150.727, 166.397 151, 165.859 151 C 165.322 151, 165.141 151.419, 165.457 151.931 C 165.774 152.443, 165.471 153.209, 164.784 153.634 C 162.704 154.919, 160 154.749, 160 153.333 C 160 152.600, 160.900 152, 162 152 C 163.100 152, 164 151.550, 164 151 C 164 149.992, 162.385 149.909, 158.250 150.706 M 83 158 C 83 159.830, 83.667 160, 90.833 160 C 95.142 160, 98.998 159.668, 99.404 159.263 C 99.809 158.857, 100.858 158.520, 101.734 158.513 C 102.611 158.506, 103.517 157.938, 103.747 157.250 C 104.065 156.302, 101.607 156, 93.583 156 C 83.667 156, 83 156.126, 83 158 M 166.738 156.692 C 165.769 156.945, 165.264 157.618, 165.616 158.187 C 165.968 158.757, 165.731 159.548, 165.089 159.945 C 164.447 160.342, 165.251 160.667, 166.876 160.667 C 169.177 160.667, 169.929 160.151, 170.277 158.333 C 170.721 156.008, 170.231 155.781, 166.738 156.692 M 128.816 159.750 C 128.547 162.091, 128.054 162.488, 125.500 162.416 C 123.850 162.370, 121.713 161.985, 120.750 161.559 C 119.152 160.853, 119 161.613, 119 170.334 C 119 180.078, 120.089 182.967, 122.512 179.653 C 123.440 178.383, 125.375 178, 130.860 178 C 135.279 178, 138 178.409, 138 179.073 C 138 179.664, 138.787 179.997, 139.750 179.814 C 141.200 179.538, 141.586 178.052, 142 171.139 C 142.444 163.736, 142.291 162.687, 140.643 161.806 C 139.380 161.132, 138.436 161.164, 137.693 161.907 C 137.092 162.508, 135.790 163, 134.800 163 C 133.467 163, 133 162.222, 133 160 C 133 157.701, 132.548 157, 131.066 157 C 129.700 157, 129.040 157.807, 128.816 159.750 M 213.443 160.223 C 215.369 162.971, 215.441 164.383, 213.621 163.685 C 212.710 163.335, 211.675 164.570, 210.569 167.328 L 208.895 171.500 207.369 168.662 C 206.530 167.100, 205.621 166.046, 205.348 166.319 C 205.075 166.591, 205.556 168.175, 206.416 169.838 C 207.974 172.850, 207.964 172.875, 203.810 176.431 C 199.001 180.547, 199.733 181.059, 205.467 177.589 L 209.434 175.187 212.294 177.594 C 215.628 180.399, 216.604 180.539, 218.641 178.502 C 219.972 177.171, 219.845 176.892, 217.505 176.002 C 216.055 175.451, 214.476 175, 213.994 175 C 210.776 175, 213.932 166.303, 217.334 165.798 C 218.439 165.634, 219.524 164.950, 219.746 164.278 C 220.265 162.702, 215.579 158, 213.489 158 C 212.033 158, 212.029 158.203, 213.443 160.223 M 123 166.500 C 123 168.611, 123.467 169, 126 169 C 128.533 169, 129 168.611, 129 166.500 C 129 164.389, 128.533 164, 126 164 C 123.467 164, 123 164.389, 123 166.500 M 133 166.500 C 133 168.500, 133.500 169, 135.500 169 C 137.500 169, 138 168.500, 138 166.500 C 138 164.500, 137.500 164, 135.500 164 C 133.500 164, 133 164.500, 133 166.500 M 172.530 164.951 C 172.174 165.528, 168.871 166.085, 165.191 166.189 L 158.500 166.378 164.278 166.740 C 167.585 166.947, 169.804 167.507, 169.469 168.051 C 169.146 168.573, 168.009 169, 166.941 169 C 165.389 169, 165 169.702, 165 172.500 C 165 174.840, 164.534 176, 163.594 176 C 162.453 176, 162.406 176.470, 163.344 178.492 C 164.670 181.352, 165.012 181.461, 167.259 179.750 C 168.210 179.026, 169.066 176.611, 169.294 174.010 C 169.650 169.963, 169.999 169.432, 172.844 168.616 C 176.323 167.618, 176.709 166.833, 174.589 165.074 C 173.624 164.273, 172.973 164.235, 172.530 164.951 M 177 170.500 C 175.945 171.771, 176.173 172, 178.500 172 C 180.827 172, 181.055 171.771, 180 170.500 C 179.315 169.675, 178.640 169, 178.500 169 C 178.360 169, 177.685 169.675, 177 170.500 M 123.709 170.624 C 123.319 171.014, 123 172.608, 123 174.167 C 123 176.661, 123.366 177, 126.063 177 C 128.917 177, 129.105 176.778, 128.813 173.750 C 128.584 171.370, 127.954 170.422, 126.459 170.208 C 125.336 170.047, 124.099 170.235, 123.709 170.624 M 133 173.500 C 133 176.702, 133.270 177.101, 135.250 176.820 C 137.012 176.569, 137.500 175.850, 137.500 173.500 C 137.500 171.150, 137.012 170.431, 135.250 170.180 C 133.270 169.899, 133 170.298, 133 173.500 M 85 196.051 C 85 196.481, 85.518 197.006, 86.151 197.217 C 87.012 197.504, 86.984 199.286, 86.040 204.289 C 85.346 207.968, 85.059 212.100, 85.403 213.471 C 86.088 216.198, 90.559 219, 94.228 219 C 99.421 219, 101.591 215.648, 103.451 204.750 C 103.847 202.429, 104.645 201, 105.545 201 C 108.367 201, 106.958 199.221, 103.750 198.732 C 100.465 198.232, 98.445 198.897, 100.750 199.720 C 101.438 199.966, 101.995 201.142, 101.988 202.333 C 101.968 206.033, 99.163 215.280, 97.798 216.146 C 95.592 217.546, 92.390 217.088, 90.608 215.120 C 89.084 213.436, 89.037 212.532, 90.153 206.474 C 91.078 201.454, 91.864 199.587, 93.200 199.238 C 94.952 198.779, 95.751 197.044, 94.250 196.956 C 93.838 196.932, 91.588 196.543, 89.250 196.091 C 86.912 195.639, 85 195.621, 85 196.051 M 131.110 202.367 C 130.246 203.409, 130.346 204.042, 131.530 205.025 C 133.441 206.611, 135.574 204.939, 134.664 202.567 C 133.923 200.637, 132.608 200.563, 131.110 202.367 M 211.308 202.010 C 208.255 203.239, 205.692 207.454, 206.483 209.945 C 207.571 213.375, 209.961 215, 213.916 215 C 217.711 215, 222.189 211.853, 220.170 210.605 C 219.642 210.279, 218.952 210.684, 218.636 211.506 C 217.949 213.297, 213.883 213.483, 212.200 211.800 C 210.017 209.617, 210.948 208.185, 214.995 207.501 C 220.679 206.540, 221.137 204.687, 216.316 202.150 C 213.828 200.840, 214.187 200.850, 211.308 202.010 M 210.583 204.643 C 209.722 206.888, 210.440 207.357, 213.542 206.579 C 215.714 206.034, 215.964 205.662, 214.966 204.459 C 213.361 202.525, 211.364 202.609, 210.583 204.643 M 193.009 206.290 C 187.842 208.904, 189.790 214, 195.956 214 C 200.276 214, 201.426 214.781, 199.869 216.658 C 198.567 218.226, 194.396 218.450, 193.500 217 C 192.475 215.342, 190.829 215.876, 191.192 217.750 C 191.753 220.651, 201.235 219.298, 202.962 216.070 C 204.467 213.259, 201.931 210.758, 196.894 210.086 C 191.649 209.386, 191.910 207.500, 197.251 207.500 C 199.586 207.500, 201.002 207.028, 201.001 206.250 C 201 204.636, 196.231 204.659, 193.009 206.290 M 181.305 208.499 C 179.915 209.473, 179.040 209.620, 178.806 208.918 C 178.558 208.174, 177.575 208.237, 175.637 209.120 C 173.282 210.193, 173.068 210.576, 174.316 211.489 C 176.306 212.944, 176.785 218.349, 175.104 220.375 C 173.542 222.257, 174.119 222.372, 180.137 221.376 C 183.742 220.780, 183.758 220.758, 181.827 218.827 C 180.624 217.624, 179.998 215.850, 180.189 214.189 C 180.440 212.022, 181.016 211.500, 183.161 211.500 C 186.591 211.500, 187.610 210.440, 186.020 208.524 C 184.449 206.631, 183.975 206.629, 181.305 208.499 M 109.750 208.689 C 107.831 209.191, 107.331 211, 109.111 211 C 110.537 211, 109.284 218.206, 107.687 219.193 C 106.131 220.155, 106.883 220.623, 111.250 221.413 C 113.454 221.811, 115 221.694, 115 221.129 C 115 220.600, 114.484 219.995, 113.853 219.784 C 113.036 219.512, 112.974 218.267, 113.637 215.451 C 114.333 212.492, 115.124 211.420, 116.784 211.180 C 118.694 210.905, 119 211.322, 119 214.208 C 119 216.049, 118.333 218.507, 117.518 219.670 C 116.099 221.697, 116.193 221.805, 119.768 222.251 C 124.055 222.785, 124.499 222.616, 123.412 220.857 C 122.978 220.156, 122.737 217.730, 122.876 215.467 C 123.180 210.531, 121.345 208.576, 117.009 209.212 C 115.354 209.455, 114 209.282, 114 208.827 C 114 207.962, 112.696 207.920, 109.750 208.689 M 161.315 210.016 C 156.905 211.774, 155.664 217.664, 159 221 C 161.390 223.390, 166.781 223.646, 169.559 221.501 C 171.351 220.118, 171.181 220.049, 167.345 220.614 C 163.825 221.132, 163.024 220.913, 162.095 219.178 C 160.469 216.139, 160.615 216, 165.441 216 C 170.638 216, 171.657 214.980, 169.245 212.191 C 167.072 209.679, 164.163 208.881, 161.315 210.016 M 129.143 210.890 C 128.197 211.490, 128.122 211.957, 128.893 212.434 C 130.685 213.541, 130.224 220.109, 128.250 221.608 C 126.719 222.770, 127.119 222.940, 131.450 222.968 C 135.300 222.993, 136.133 222.733, 135.200 221.800 C 134.540 221.140, 134 218.215, 134 215.300 C 134 210.913, 133.698 210.003, 132.250 210.015 C 131.287 210.024, 129.889 210.417, 129.143 210.890 M 150.464 211.885 C 151.076 213.815, 149.253 219, 147.961 219 C 146.817 219, 144.740 213.230, 145.463 212.060 C 145.884 211.379, 144.653 211, 142.020 211 C 138.808 211, 138.164 211.271, 139.045 212.250 C 139.663 212.938, 141.368 215.719, 142.834 218.432 C 144.300 221.144, 145.976 223.516, 146.557 223.701 C 147.138 223.886, 148.909 221.329, 150.491 218.019 C 152.073 214.709, 153.762 212, 154.243 212 C 154.724 212, 154.840 211.550, 154.500 211 C 154.160 210.450, 152.978 210, 151.874 210 C 150.361 210, 150.013 210.465, 150.464 211.885 M 161.676 212.402 C 160.936 214.330, 161.631 214.793, 164.453 214.254 C 166.003 213.957, 166.668 213.298, 166.322 212.397 C 165.627 210.585, 162.372 210.589, 161.676 212.402" stroke="none" fill="black" fill-rule="evenodd"/>
</svg>